<svg width="1721" height="426" viewBox="0 0 1721 426" fill="none" xmlns="http://www.w3.org/2000/svg">
<path d="M927.202 128.609L839.468 260.76L837.523 263.463V339.779H796.728V263.463L795.137 260.76L707.094 128.609H751.425L817.325 227.268L882.871 128.609H927.202Z" fill="white"/>
<path d="M1123.25 128.609C1147.03 128.609 1166.3 146.728 1166.3 169.027V299.361C1166.3 321.703 1147.03 339.779 1123.25 339.779H989.245C965.466 339.779 946.195 321.661 946.195 299.361V169.027C946.195 146.686 965.466 128.609 989.245 128.609H1123.25ZM1125.82 294.842V173.589C1125.82 168.478 1121.31 164.551 1116.18 164.551H996.316C991.189 164.551 986.991 168.478 986.991 173.589V294.842C986.991 299.953 991.145 303.88 996.316 303.88H1116.18C1121.31 303.88 1125.82 299.953 1125.82 294.842Z" fill="white"/>
<path d="M1393.88 281.539V128.609H1433.34V339.779H1393.88L1258.58 186.85V339.779H1218.82V128.609H1258.58L1393.88 281.539Z" fill="white"/>
<path d="M1566.77 128.609H1616.43L1720.49 339.779H1678.48L1652.8 288.212H1530.08L1504.72 339.779H1462.39L1566.77 128.609ZM1547.78 252.313H1635.14L1591.48 163.917L1547.83 252.313H1547.78Z" fill="white"/>
<path d="M352.103 29.5252C353.669 55.018 355.285 81.7443 361.103 108.125C369.773 147.466 394.547 170.821 432.722 180.295C453.985 185.574 475.775 188.765 497.335 192.877C500.038 193.386 502.774 193.617 505.478 194.143C512.549 195.524 515.17 197.959 516.027 203.764C516.801 208.978 513.983 215.195 508.791 217.366C504.851 219.011 500.384 219.669 496.082 220.096C478.891 221.823 461.567 222.563 444.491 225.047C426.079 227.728 408.986 234.274 394.679 246.938C386.273 254.372 380.19 263.335 375.361 273.269C365.883 292.743 361.021 313.564 358.845 334.896C356.191 360.767 354.477 386.737 352.45 412.674C351.724 422.016 348.741 425.19 339.939 425.338C331.648 425.486 327.873 421.999 327.478 413.628C326.835 400.224 326.769 386.77 325.582 373.415C323.291 347.511 320.736 321.623 312.462 296.673C305.588 275.967 295.6 257.447 277.864 243.879C264.711 233.829 249.794 227.432 233.574 225.162C215.938 222.695 198.087 221.873 180.351 220.113C175.258 219.603 169.934 219.06 165.269 217.185C159.17 214.718 157.077 209.455 157.885 203.107C158.676 196.791 162.912 194.571 168.516 193.534C189.581 189.702 210.729 186.265 231.629 181.742C250.519 177.647 268.238 170.443 284.029 158.798C299.935 147.088 310.649 131.513 316.022 113.092C320.819 96.6453 323.819 79.5075 325.912 62.4685C327.808 47.0412 327.412 31.3179 328.038 15.7262C328.104 14.0815 328.121 12.4368 328.351 10.8085C329.291 4.21327 333.626 0.134423 339.758 0.00284692C346.054 -0.128729 351.428 4.31195 352.005 10.9401C352.499 16.6472 352.103 22.4365 352.103 29.5087V29.5252Z" fill="white"/>
<path d="M254.011 334.524C214.181 329.854 174.217 326.075 134.553 320.266C100.591 315.299 66.9445 307.906 35.5423 293.385C26.1333 289.028 17.0069 283.319 9.1605 276.602C-3.29066 265.926 -2.80858 253.054 9.14387 241.701C22.7255 228.797 39.5819 221.651 57.2197 216.684C77.9494 210.843 99.0283 206.173 120.007 201.206C128.003 199.308 134.088 203.153 135.733 210.48C137.363 217.724 132.691 224.886 125.044 226.569C117.215 228.285 109.219 229.358 101.522 231.486C90.3673 234.589 79.3292 238.219 68.4074 242.064C65.4152 243.12 62.6556 245.43 60.3782 247.724C56.2389 251.866 56.0061 255.216 60.5444 258.995C65.1325 262.807 70.4023 266.107 75.8881 268.467C99.4605 278.632 124.612 283.566 149.781 286.966C188.963 292.246 228.377 295.794 267.726 299.87C279.329 301.075 286.959 308.22 286.743 318.616C286.56 327.345 280.376 333.748 271.582 333.831C265.781 333.88 259.962 333.369 254.161 333.121C254.094 333.6 254.044 334.062 253.978 334.54L254.011 334.524Z" fill="white"/>
<path d="M410.491 334.54C399.416 333.827 392.574 328.533 391.934 319.19C391.311 310.014 398.874 301.019 408.686 299.858C417.086 298.862 425.552 298.364 434.002 297.734C472.443 294.896 510.802 291.129 548.62 283.463C565.453 280.061 582.041 275.298 598.546 270.469C604.469 268.743 610.145 265.507 615.33 262.023C623.058 256.828 623.189 250.025 615.707 244.714C611.31 241.595 606.273 238.94 601.138 237.43C588.57 233.729 575.773 230.792 563.041 227.589C559.333 226.66 555.527 226.029 551.868 224.934C545.043 222.893 541.598 217.168 542.877 210.381C544.124 203.71 549.719 199.478 556.889 201.054C575.839 205.22 594.936 208.987 613.46 214.695C628.521 219.325 642.943 226.212 657.348 232.75C662.204 234.957 666.601 238.707 670.457 242.541C681.86 253.875 681.236 266.188 669.325 276.958C657.643 287.528 643.55 293.469 629.079 298.646C594.132 311.159 557.906 318.344 521.286 323.04C484.469 327.753 447.422 330.773 410.491 334.54Z" fill="white"/>
</svg>
